#!OML:ASF I:\Actors\actors\Patient Classification 2\Patient 1\Session 1\actor1.ASF
:FULLY-SPECIFIED
:DEGREES
776
root -0.724808 18.5796 6.29028 -2.39526 -3.39433 -2.35397
lowerback 2.95 1.15058 0.29757
upperback -0.573662 1.5657 0.910812
thorax -2.25931 0.783374 0.691341
lowerneck -12.5127 -1.17024 -0.667672
upperneck 23.6227 -1.72428 0.906697
head 9.52936 -0.763249 0.222374
rclavicle 1.44895e-014 -3.8763e-015
rhumerus -47.3144 3.87046 -90.6705
rradius 40.4876
rwrist 15.4202
rhand -8.67924 -29.8656
rfingers 7.12502
rthumb 17.2552 -59.1195
lclavicle 1.44895e-014 -3.8763e-015
lhumerus -44.0237 -3.6193 94.7546
lradius 40.158
lwrist 5.84674
lhand -9.10763 -20.4538
lfingers 7.12502
lthumb 16.8428 8.83571
rfemur 12.6333 -2.227 14.8046
rtibia -2.8625e-014
rfoot -14.8751 -6.93353
rtoes -5.79724
lfemur 1.3765 -6.13558 -13.0463
ltibia 21.7534
lfoot -23.8378 12.2158
ltoes -55.5683
777
root -0.724111 18.5803 6.28886 -2.39754 -3.37943 -2.35632
lowerback 3.00014 1.15755 0.294414
upperback -0.58904 1.57549 0.911842
thorax -2.30349 0.788292 0.692407
lowerneck -12.5303 -1.16366 -0.669774
upperneck 23.6225 -1.70705 0.877967
head 9.53223 -0.758473 0.214744
rclavicle 1.11599e-014 1.14301e-014
rhumerus -47.3116 3.88432 -90.6213
rradius 40.4543
rwrist 15.4906
rhand -8.65544 -29.9171
rfingers 7.12502
rthumb 17.2781 -59.169
lclavicle 1.11599e-014 1.14301e-014
lhumerus -44.0417 -3.60679 94.7046
lradius 40.1843
lwrist 5.81175
lhand -9.05669 -20.5632
lfingers 7.12502
lthumb 16.8919 8.72222
rfemur 12.6288 -2.24123 14.8028
rtibia -5.24792e-014
rfoot -14.8943 -6.92368
rtoes -5.84001
lfemur 1.37896 -6.18047 -13.0523
ltibia 21.7592
lfoot -23.8755 12.2086
ltoes -55.5369
778
root -0.72334 18.5815 6.28743 -2.37617 -3.34987 -2.33847
lowerback 3.00863 1.1577 0.266533
upperback -0.609721 1.57472 0.903069
thorax -2.33001 0.788238 0.698618
lowerneck -12.5463 -1.18045 -0.684126
upperneck 23.6763 -1.73602 0.909975
head 9.55495 -0.769398 0.224628
rclavicle -1.7052e-015 -1.78906e-015
rhumerus -47.3021 3.87389 -90.5888
rradius 40.4061
rwrist 15.5639
rhand -8.64282 -29.9585
rfingers 7.12502
rthumb 17.2902 -59.2094
lclavicle -1.7052e-015 -1.78906e-015
lhumerus -44.0243 -3.59428 94.6378
lradius 40.15
lwrist 5.80277
lhand -8.95882 -20.5619
lfingers 7.12502
lthumb 16.9861 8.71537
rfemur 12.6022 -2.27033 14.773
rtibia 1.90833e-014
rfoot -14.8772 -6.87658
rtoes -5.83041
lfemur 1.32479 -6.15176 -13.066
ltibia 21.7732
lfoot -23.8492 12.2178
ltoes -55.6293
779
root -0.723882 18.5815 6.28661 -2.36554 -3.32893 -2.34611
lowerback 3.03306 1.15888 0.255049
upperback -0.640004 1.57625 0.898176
thorax -2.37504 0.789145 0.699048
lowerneck -12.5427 -1.19733 -0.652224
upperneck 23.7192 -1.75861 0.873551
head 9.56894 -0.780991 0.203905
rclavicle -2.44754e-015 -1.85864e-014
rhumerus -47.3261 3.86705 -90.5801
rradius 40.3594
rwrist 15.6463
rhand -8.6668 -29.9018
rfingers 7.12502
rthumb 17.2672 -59.1547
lclavicle -2.44754e-015 -1.85864e-014
lhumerus -44.0208 -3.55931 94.545
lradius 40.1008
lwrist 5.73472
lhand -8.90971 -20.4789
lfingers 7.12502
lthumb 17.0333 8.79435
rfemur 12.5905 -2.29236 14.7797
rtibia 7.95139e-015
rfoot -14.8666 -6.85969
rtoes -5.62361
lfemur 1.28312 -6.11078 -13.0425
ltibia 21.7932
lfoot -23.8268 12.1933
ltoes -55.6743
780
root -0.724169 18.5811 6.28634 -2.36766 -3.31269 -2.35492
lowerback 3.06288 1.16184 0.263908
upperback -0.664427 1.58089 0.891674
thorax -2.41653 0.791295 0.686232
lowerneck -12.5137 -1.20259 -0.629322
upperneck 23.7155 -1.75663 0.81524
head 9.5613 -0.784651 0.180288
rclavicle 2.50282e-014 -2.08724e-015
rhumerus -47.3527 3.88944 -90.5725
rradius 40.3248
rwrist 15.6752
rhand -8.58039 -29.8555
rfingers 7.12502
rthumb 17.3503 -59.1011
lclavicle 2.50282e-014 -2.08724e-015
lhumerus -44.0269 -3.52853 94.4563
lradius 40.0632
lwrist 5.61716
lhand -8.90066 -20.531
lfingers 7.12502
lthumb 17.0421 8.74151
rfemur 12.5872 -2.30983 14.796
rtibia -1.43125e-014
rfoot -14.8385 -6.90273
rtoes -5.7599
lfemur 1.28427 -6.13356 -13.0351
ltibia 21.8047
lfoot -23.8456 12.1787
ltoes -55.6284
